<svg xmlns="http://www.w3.org/2000/svg" width="28.002" height="20.175" viewBox="0 0 28.002 20.175">
  <g id="Group_140" data-name="Group 140" transform="translate(-9.999 -21.235)">
    <path id="Path_1001" data-name="Path 1001" d="M35.484,36.091a4.18,4.18,0,0,0,.81-1.51c.057-.238.1-.49.125-.679a.88.88,0,0,0,.4-.485,5.621,5.621,0,0,0,.166-1,1.473,1.473,0,0,0-.131-.848c.189-2.135-.408-2.556-.807-2.632a.8.8,0,0,1-.451-.21c-.223-.281-.322-.593-.708-.569a.64.64,0,0,1-.443-.145.957.957,0,0,0-.5-.307.846.846,0,0,0-.471.3.606.606,0,0,1-.438.155c-.385-.025-.484.288-.708.569a.8.8,0,0,1-.45.21c-.4.076-1,.5-.807,2.633a1.481,1.481,0,0,0-.131.846,5.709,5.709,0,0,0,.166,1,.889.889,0,0,0,.4.485c.026.189.067.443.124.679a4.228,4.228,0,0,0,.822,1.535h-.009c-.06,2.97-5.515,1.326-4.352,6.661.371,1.511,5.14,1.787,5.873,1.727.732.06,5.5-.216,5.871-1.727C40.995,37.447,35.555,39.052,35.484,36.091Z" transform="translate(-10.377 -3.101)" fill="#fff"/>
    <path id="Path_1002" data-name="Path 1002" d="M14.2,33.7c.929-.429,1.355-.682,1.5-1.045-1.307-.741-2.9-1.034-2.942-2.653a4.3,4.3,0,0,0,.831-1.553c.059-.246.1-.5.128-.7a.9.9,0,0,0,.408-.5,5.765,5.765,0,0,0,.17-1.031,1.526,1.526,0,0,0-.134-.872c.194-2.2-.419-2.629-.828-2.707a.823.823,0,0,1-.463-.216c-.229-.289-.331-.61-.726-.584a.657.657,0,0,1-.455-.15.978.978,0,0,0-.515-.315.872.872,0,0,0-.482.306.621.621,0,0,1-.449.16c-.395-.026-.5.3-.726.584a.822.822,0,0,1-.463.216c-.409.078-1.022.51-.827,2.708a1.523,1.523,0,0,0-.135.871,5.878,5.878,0,0,0,.17,1.031.912.912,0,0,0,.408.5c.027.194.069.456.128.7a4.339,4.339,0,0,0,.844,1.578h-.01c-.061,3.056-5.66,1.365-4.466,6.851.367,1.5,4.925,1.815,5.929,1.782C10.711,35.317,12.786,34.356,14.2,33.7Z" transform="translate(5 -0.146)" fill="#fff"/>
    <path id="Path_1003" data-name="Path 1003" d="M63.834,28.6c3.317-.646,2.465-6.264-.475-7.345a1.649,1.649,0,0,0-1.079.072,1.649,1.649,0,0,0-1.079-.072c-2.941,1.082-3.793,6.7-.471,7.346C60.6,30.091,58.5,30.073,57.2,30.927c.148.309.568.528,1.475.9,1.284.525,3.128,1.281,3.094,3.673.233.006.413,0,.515,0,.739.051,5.557-.186,5.931-1.485C69.369,29.494,64.065,30.984,63.834,28.6Z" transform="translate(-30.376 2)" fill="#fff"/>
  </g>
</svg>
