<svg xmlns="http://www.w3.org/2000/svg" width="28" height="18.064" viewBox="0 0 28 18.064">
  <g id="noun_dashboard_2919722" transform="translate(-2 -24)">
    <g id="Group_139" data-name="Group 139" transform="translate(2 24)">
      <g id="Group_138" data-name="Group 138" transform="translate(0 0)">
        <ellipse id="Ellipse_11" data-name="Ellipse 11" cx="1.086" cy="1.115" rx="1.086" ry="1.115" transform="translate(12.914 12.691)"/>
        <path id="Path_1000" data-name="Path 1000" d="M16.074,24h-.046A14.173,14.173,0,0,0,2,38.176a13.405,13.405,0,0,0,.4,3.434.451.451,0,0,0,.433.331l26.3.124h0a.451.451,0,0,0,.434-.328A13.109,13.109,0,0,0,30,38.326,14.179,14.179,0,0,0,16.074,24Zm4.235,5.446,1.115-1.953a.452.452,0,0,1,.784.448l-1.115,1.953a.452.452,0,0,1-.784-.448Zm-4.883-3.337a.452.452,0,0,1,.9,0v2.473a.452.452,0,1,1-.9,0V26.108ZM6.79,38.8H4.366a.452.452,0,1,1,0-.9H6.79a.452.452,0,0,1,0,.9Zm1.6-5.269a.451.451,0,0,1-.617.164L5.86,32.582a.452.452,0,1,1,.454-.781l1.915,1.113A.451.451,0,0,1,8.392,33.531Zm3.2-3.32a.451.451,0,0,1-.615-.172L9.862,28.061a.452.452,0,1,1,.787-.443L11.764,29.6A.452.452,0,0,1,11.592,30.211Zm11.059,1.525-4.79,4.3a2.441,2.441,0,0,1,.529,1.521A2.391,2.391,0,1,1,16,35.128a2.344,2.344,0,0,1,1.172.315l4.876-4.378a.452.452,0,0,1,.6.672Zm1.492,1.846a.452.452,0,0,1-.231-.84l1.915-1.137a.452.452,0,0,1,.461.777l-1.915,1.137A.448.448,0,0,1,24.144,33.583Zm3.49,4.97H25.452a.452.452,0,1,1,0-.9h2.181a.452.452,0,1,1,0,.9Z" transform="translate(-2 -24)"/>
      </g>
    </g>
  </g>
</svg>
