<svg xmlns="http://www.w3.org/2000/svg" width="14.483" height="18" viewBox="0 0 14.483 18">
  <path id="Fill_1" data-name="Fill 1" d="M9.294,18a.2.2,0,0,1-.19-.13,12.524,12.524,0,0,1-.792-3.976.258.258,0,0,1-.175-.191,17.993,17.993,0,0,1,.2-2.912.461.461,0,0,0,.049-.411.281.281,0,0,0-.192-.133,16.2,16.2,0,0,1-3.3-.671.416.416,0,0,1-.239-.184A16.826,16.826,0,0,1,.092,7.54.2.2,0,0,1,.2,7.166.206.206,0,0,1,.316,7.2a16.251,16.251,0,0,0,4.27,1.751c.006-.045.013-.075.013-.075a11.362,11.362,0,0,1,3.056-6.23L2.985.388a.205.205,0,0,1-.1-.273A.207.207,0,0,1,3.075,0a.2.2,0,0,1,.088.02L7.949,2.337a.284.284,0,0,1,.227-.122.362.362,0,0,1,.185.058l3.6,1.795a.232.232,0,0,1,.142.28l.123.06a2.931,2.931,0,0,1,1.824,1.237,3.51,3.51,0,0,1,.233,2.876l.008,0,.013.005h0a.256.256,0,0,1,.107.071.275.275,0,0,1,.066.22l-.319,4.775a.306.306,0,0,1-.156.271l-.2,3.94a.2.2,0,0,1-.2.193h-.012a.2.2,0,0,1-.193-.214l.2-3.9-4.866.026a12.025,12.025,0,0,0,.752,3.805.2.2,0,0,1,0,.157.2.2,0,0,1-.112.107A.178.178,0,0,1,9.294,18ZM12,4.748a2.894,2.894,0,0,0,1.9,3.636,3.117,3.117,0,0,0-.19-2.522A2.552,2.552,0,0,0,12.13,4.8l-.055-.017L12,4.748Z" transform="translate(0 0)" fill="#fff"/>
</svg>
