<svg xmlns="http://www.w3.org/2000/svg" width="20" height="20" viewBox="0 0 20 20">
  <g id="Group_3" data-name="Group 3" transform="translate(-0.117 -0.033)">
    <path id="Fill_1" data-name="Fill 1" d="M13.017,13.935H2.447A2.432,2.432,0,0,1,0,11.524V0H15.464V11.524A2.432,2.432,0,0,1,13.017,13.935ZM7.472,2.126H7.45a.71.71,0,0,0-.7.708V11.1a.719.719,0,0,0,1.439,0V2.834a.7.7,0,0,0-.219-.508A.722.722,0,0,0,7.472,2.126Zm4.184,0h-.023a.71.71,0,0,0-.7.706V11.1a.72.72,0,0,0,1.439,0V2.834a.707.707,0,0,0-.219-.508A.723.723,0,0,0,11.656,2.128Zm-8.37,0H3.263a.711.711,0,0,0-.7.706V11.1a.72.72,0,0,0,1.439,0V2.834a.711.711,0,0,0-.219-.508A.724.724,0,0,0,3.286,2.128Z" transform="translate(2.611 6.098)" fill="red"/>
    <path id="Fill_2" data-name="Fill 2" d="M20,5.178H0V3.731H5.668V2.411a2.384,2.384,0,0,1,.714-1.7A2.438,2.438,0,0,1,8.107,0h4.244a2.438,2.438,0,0,1,1.725.706,2.384,2.384,0,0,1,.713,1.7v1.32H20V5.177ZM8.107,1.446a.988.988,0,0,0-.69.282.962.962,0,0,0-.286.682v1.32h6.2V2.411a.962.962,0,0,0-.286-.682.988.988,0,0,0-.69-.282Z" transform="translate(0.117 0.033)" fill="red"/>
  </g>
</svg>
