<svg xmlns="http://www.w3.org/2000/svg" width="52.181" height="91.336" viewBox="0 0 52.181 91.336">
  <path id="Shape" d="M30.032,91.336H22.149A22.13,22.13,0,0,1,0,69.187V22.149A22.13,22.13,0,0,1,22.149,0h7.908A22.131,22.131,0,0,1,52.181,22.149V69.187A22.131,22.131,0,0,1,30.032,91.336ZM24.061,51.767V80.429L43.652,60.89,28.894,46.159l14.757-14.5L23.881,11.966v29l-.336.155L11.759,29.437,9.615,31.22,22.976,44.582c.741.727,1.045,1.225,1.047,1.716s-.3,1-1.047,1.747L11.889,59.081,9.743,61.175l2.327,2.584,11.99-11.99Z" transform="translate(0)" fill="#0a6eac"/>
</svg>
