<svg xmlns="http://www.w3.org/2000/svg" width="16" height="19" viewBox="0 0 16 19">
  <g id="Group_4" data-name="Group 4" transform="translate(16.105 -0.002) rotate(90)">
    <path id="Fill_1" data-name="Fill 1" d="M2.257,16a.619.619,0,0,1-.614-.622V14.041a2.289,2.289,0,0,1,0-4.391V.623a.614.614,0,1,1,1.228,0V9.649a2.29,2.29,0,0,1,0,4.391v1.333A.619.619,0,0,1,2.257,16Zm0-5.187a1.013,1.013,0,0,0-.725.3,1.043,1.043,0,0,0-.221,1.133,1.018,1.018,0,0,0,1.673.337,1.045,1.045,0,0,0-.333-1.7A1.008,1.008,0,0,0,2.256,10.809Z" transform="translate(0.002 0.105)" fill="#0a6eac"/>
    <path id="Fill_2" data-name="Fill 2" d="M2.257,16a.618.618,0,0,1-.613-.622V14.041a2.288,2.288,0,0,1,0-4.391V.623a.614.614,0,1,1,1.228,0V9.649a2.29,2.29,0,0,1,0,4.391v1.333A.619.619,0,0,1,2.257,16Zm0-5.187a1.013,1.013,0,0,0-.725.3,1.045,1.045,0,0,0-.222,1.133,1.018,1.018,0,0,0,1.674.337,1.046,1.046,0,0,0-.333-1.7A1.008,1.008,0,0,0,2.257,10.809Z" transform="translate(14.489 0.105)" fill="#0a6eac"/>
    <path id="Fill_3" data-name="Fill 3" d="M2.255,16a.619.619,0,0,1-.615-.622V6.347a2.289,2.289,0,0,1,0-4.391V.623a.614.614,0,1,1,1.229,0V1.956a2.288,2.288,0,0,1,0,4.391v9.027A.619.619,0,0,1,2.255,16Zm0-12.89a1.042,1.042,0,0,0-.393,2,1.012,1.012,0,0,0,1.118-.224A1.048,1.048,0,0,0,3.2,3.749,1.022,1.022,0,0,0,2.255,3.106Z" transform="translate(7.08 0.109)" fill="#0a6eac"/>
  </g>
</svg>
