<svg xmlns="http://www.w3.org/2000/svg" width="18.089" height="22.069" viewBox="0 0 18.089 22.069">
  <path id="Shape" d="M9.045,22.069A9.055,9.055,0,0,1,0,13.024,8.939,8.939,0,0,1,6.874,4.269V3.4H6.006V2.316A2.291,2.291,0,0,1,8.321,0H9.769a2.283,2.283,0,0,1,2.243,2.316V3.4h-.8v.868a8.918,8.918,0,0,1,3.255,1.52l1.013-1.013L14.906,4.2l.869-.8,1.953,1.953-.8.868-.652-.651-.941.941a9.3,9.3,0,0,1,2.75,6.512A9.055,9.055,0,0,1,9.045,22.069Zm.579-1.954v.8A7.919,7.919,0,0,0,16.932,13.6h-.8V12.445h.8A7.919,7.919,0,0,0,9.624,5.137v.8H8.465v-.8a7.919,7.919,0,0,0-7.308,7.308h.8V13.6h-.8a7.917,7.917,0,0,0,7.307,7.308v-.8ZM9.045,3.98a5.144,5.144,0,0,1,1.012.072V3.4H8.032v.651A4.5,4.5,0,0,1,9.045,3.98ZM8.321,1.157A1.125,1.125,0,0,0,7.163,2.243h3.763A1.232,1.232,0,0,0,9.769,1.157Zm.724,14.037a2.164,2.164,0,0,1-.58-4.269V7.67H9.624v3.256a2.174,2.174,0,0,1-.579,4.269Zm0-3.183a1.015,1.015,0,1,0,0,2.026,1.013,1.013,0,0,0,0-2.026Z" transform="translate(0 0)" fill="#fff"/>
</svg>
